<svg width="12" height="13" viewBox="0 0 12 13" fill="none" xmlns="http://www.w3.org/2000/svg">
  <path d="M6.00003 0.5C6.05724 0.5 6.1144 0.506561 6.17122 0.508152C9.40296 0.598881 12.0001 3.24658 12.0001 6.50003C12.0001 9.75346 9.40296 12.4012 6.17122 12.4919C6.11403 12.4977 6.05836 12.5 6.00003 12.5C5.9417 12.5 5.88603 12.4974 5.82885 12.4919C2.5971 12.4012 0 9.75346 0 6.50003C0 3.24658 2.5971 0.598881 5.82885 0.508152C5.88603 0.502517 5.9417 0.5 6.00003 0.5ZM6.2609 1.0625V3.89132H8.28265C8.15146 3.3953 7.98664 2.9406 7.79352 2.55436C7.36428 1.69585 6.82177 1.18659 6.2609 1.0625ZM5.73916 1.0625C5.17829 1.18659 4.63578 1.69585 4.20654 2.55436C4.01342 2.9406 3.8486 3.3953 3.71741 3.89132H5.73916V1.0625ZM7.54079 1.25C7.81501 1.54067 8.05859 1.90245 8.26635 2.31794C8.49591 2.77707 8.68612 3.31141 8.82886 3.89132H10.818C10.1294 2.62265 8.95319 1.66248 7.54079 1.25ZM4.45928 1.25C3.04687 1.66248 1.87068 2.62265 1.18206 3.89132H3.1712C3.31395 3.31141 3.50415 2.77707 3.73372 2.31794C3.94147 1.90245 4.18505 1.54067 4.45928 1.25ZM11.0625 4.41306H8.93483C9.04283 4.98675 9.10841 5.59983 9.12234 6.23916H11.4702C11.4395 5.59453 11.2967 4.98017 11.0625 4.41306ZM8.40495 4.41306H6.2609V6.23916H8.6006C8.58547 5.59411 8.51978 4.98132 8.40495 4.41306ZM5.73916 4.41306H3.59511C3.48028 4.98132 3.41467 5.59411 3.39946 6.23916H5.73916V4.41306ZM3.06523 4.41306H0.937518C0.703334 4.98017 0.560586 5.59453 0.529881 6.23916H2.87772C2.89155 5.59983 2.95723 4.98675 3.06523 4.41306ZM11.4702 6.7609H9.12234C9.10852 7.39957 9.05068 8.01512 8.94297 8.587H11.0625C11.2959 8.01963 11.4404 7.40559 11.4702 6.7609ZM8.6006 6.7609H6.2609V8.587H8.40495C8.51908 8.02154 8.58565 7.40398 8.6006 6.7609ZM5.73916 6.7609H3.39946C3.41433 7.40398 3.48098 8.02154 3.59511 8.587H5.73916V6.7609ZM2.87772 6.7609H0.529881C0.559699 7.40559 0.704169 8.01963 0.937518 8.587H3.05709C2.94938 8.01512 2.89144 7.39957 2.87772 6.7609ZM10.818 9.10874H8.82886C8.68612 9.68699 8.49591 10.2148 8.26635 10.674C8.05449 11.0977 7.80536 11.4714 7.52451 11.7664C8.94691 11.356 10.1271 10.3857 10.818 9.10874ZM8.28265 9.10874H6.2609V11.9457C6.82177 11.82 7.36428 11.2961 7.79352 10.4376C7.98675 10.0511 8.15143 9.60361 8.28265 9.10874ZM5.73916 9.10874H3.71741C3.84863 9.60361 4.01332 10.0511 4.20654 10.4376C4.63578 11.2961 5.17829 11.82 5.73916 11.9457V9.10874ZM3.1712 9.10874H1.18206C1.87298 10.3857 3.05316 11.356 4.47555 11.7664C4.1947 11.4714 3.94557 11.0977 3.73372 10.674C3.50415 10.2148 3.31395 9.68699 3.1712 9.10874Z" fill="black"></path>
  </svg>