<svg width="286" height="62" viewBox="0 0 286 62" fill="none" xmlns="http://www.w3.org/2000/svg">
<path fill-rule="evenodd" clip-rule="evenodd" d="M54.025 18.56C54.081 18.847 54.133 19.135 54.182 19.428C54.2066 19.574 54.1749 19.724 54.0932 19.8477C54.0115 19.9713 53.886 20.0593 53.742 20.094L44.845 22.429H44.841C44.7025 22.4684 44.5543 22.4557 44.4244 22.3935C44.2946 22.3312 44.192 22.2236 44.136 22.091C44.132 22.084 44.131 22.076 44.129 22.069C43.71 20.797 43.249 19.622 42.724 18.561C40.574 14.207 37.374 11.695 31.864 11.695C26.007 11.695 21.107 14.352 17.65 18.561C14.11 22.867 12.08 28.8 12.08 35.172C12.08 44.908 17.067 50.634 24.998 50.634C32.845 50.634 37.833 45.48 39.958 39.591H30.038C29.9517 39.5898 29.8668 39.5697 29.7892 39.5321C29.7115 39.4944 29.6431 39.4402 29.5888 39.3733C29.5344 39.3063 29.4954 39.2282 29.4745 39.1445C29.4537 39.0609 29.4514 38.9736 29.468 38.889L30.953 31.39C30.9802 31.2576 31.0521 31.1386 31.1566 31.0528C31.2611 30.9671 31.3918 30.9198 31.527 30.919H51.261C51.3515 30.9189 51.4408 30.9397 51.522 30.9798C51.6033 31.0198 51.6742 31.078 51.7293 31.1498C51.7844 31.2217 51.8222 31.3052 51.8399 31.394C51.8575 31.4828 51.8544 31.5745 51.831 31.662V31.666L46.424 59.342C46.3874 59.495 46.2918 59.6283 46.158 59.711C46.0761 59.7606 45.9835 59.7897 45.888 59.796H38.058C37.9099 59.7871 37.7706 59.7227 37.668 59.6155C37.5655 59.5083 37.5072 59.3663 37.505 59.218V54.15C35.212 56.95 32.269 58.867 28.44 59.799C26.671 60.228 24.714 60.449 22.544 60.449C20.7349 60.4515 18.9322 60.2332 17.176 59.799C8.12997 57.545 1.04297 49.499 1.04297 36.727C1.04297 30.073 2.52197 23.853 5.30297 18.561C10.528 8.61595 20.35 1.95595 33.602 1.87995C33.678 1.87995 33.752 1.87695 33.826 1.87695C33.921 1.87695 34.013 1.87895 34.106 1.87995C45.718 1.98795 52.125 8.89295 54.025 18.56ZM75.811 2.46995C75.811 2.50095 75.805 2.53295 75.8 2.56395L64.816 59.357L64.814 59.359C64.7801 59.4843 64.706 59.595 64.603 59.674C64.4999 59.753 64.3738 59.7958 64.244 59.796H55.225C55.137 59.796 55.0501 59.7764 54.9707 59.7384C54.8913 59.7005 54.8214 59.6453 54.7661 59.5768C54.7109 59.5083 54.6717 59.4283 54.6514 59.3427C54.6311 59.257 54.6303 59.1679 54.649 59.082L65.618 2.36695C65.6417 2.23106 65.7125 2.10786 65.8181 2.01899C65.9236 1.93012 66.057 1.88125 66.195 1.88095H66.198C66.205 1.88095 66.211 1.87895 66.218 1.87795H75.213C75.217 1.87795 75.218 1.88095 75.221 1.88095H75.224C75.3798 1.88148 75.5291 1.94377 75.6392 2.05417C75.7492 2.16457 75.811 2.31409 75.811 2.46995ZM102.749 47.362C104.794 44.744 105.774 41.307 105.774 36.89C105.774 30.51 102.585 26.582 97.761 26.582C93.756 26.582 90.813 28.219 88.687 31.001C86.643 33.618 85.662 37.053 85.662 41.471C85.662 47.853 88.85 51.779 93.674 51.779C97.68 51.779 100.624 50.143 102.749 47.362ZM104.019 18.561C111.988 20.607 116.647 27.27 116.647 35.336C116.647 43.107 114.522 49.161 109.616 53.905C106.271 57.09 103.034 58.921 99.221 59.799C97.256 60.251 95.138 60.449 92.775 60.449C90.853 60.449 89.058 60.224 87.408 59.799C79.444 57.75 74.788 51.089 74.788 43.025C74.788 35.255 76.914 29.201 81.819 24.455C85.167 21.268 88.409 19.437 92.227 18.561C94.189 18.111 96.301 17.911 98.661 17.911C100.58 17.911 102.37 18.137 104.019 18.561ZM150.532 24.488C150.594 24.6087 150.612 24.7472 150.584 24.88C150.556 25.0128 150.483 25.1318 150.377 25.217L150.362 25.227C150.348 25.2401 150.333 25.2515 150.316 25.261L143.952 29.84C143.949 29.84 143.949 29.84 143.946 29.843C143.821 29.919 143.673 29.9459 143.53 29.9186C143.387 29.8912 143.259 29.8115 143.171 29.695C141.726 27.577 139.314 26.582 137.182 26.582C134.974 26.582 133.176 27.892 133.176 30.265C133.176 33.126 137.508 34.355 140.289 35.664C144.54 37.626 148.791 40.408 148.791 46.134C148.791 53.907 144.625 58.254 138.38 59.799C136.606 60.237 134.666 60.449 132.604 60.449C130.796 60.449 129.168 60.213 127.705 59.799C121.389 58.009 118.171 52.871 117.172 48.789C117.168 48.761 117.162 48.731 117.162 48.701C117.162 48.458 117.31 48.249 117.521 48.158C117.523 48.158 117.522 48.156 117.523 48.155L125.116 45C125.19 44.9688 125.27 44.9532 125.351 44.9542C125.431 44.9552 125.511 44.9727 125.584 45.0057C125.658 45.0387 125.724 45.0865 125.778 45.146C125.832 45.2056 125.874 45.2757 125.9 45.352C127.073 49.399 129.853 51.778 133.748 51.778C136.527 51.778 138.981 50.469 138.981 47.525C138.981 45.152 136.61 43.679 131.95 41.471C127.126 39.179 123.53 35.989 123.53 30.508C123.53 24.403 126.909 20.118 132.678 18.56C134.255 18.133 136.006 17.91 137.918 17.91C139.451 17.91 140.985 18.141 142.437 18.56C146.045 19.596 149.155 21.79 150.532 24.48V24.487V24.488ZM176.113 18.561C179.723 19.599 182.834 21.794 184.21 24.488C184.252 24.569 184.274 24.661 184.274 24.758C184.274 24.938 184.194 25.1 184.065 25.206L177.625 29.842H177.623C177.496 29.9199 177.343 29.9465 177.197 29.9164C177.051 29.8864 176.921 29.8018 176.835 29.68C175.391 27.573 172.983 26.582 170.856 26.582C168.649 26.582 166.851 27.892 166.851 30.265C166.851 33.126 171.183 34.355 173.964 35.664C178.214 37.626 182.466 40.408 182.466 46.134C182.466 53.907 178.299 58.254 172.056 59.799C170.28 60.237 168.339 60.449 166.278 60.449C164.471 60.449 162.844 60.213 161.379 59.799C155.078 58.012 151.858 52.891 150.851 48.813C150.845 48.776 150.838 48.74 150.838 48.701C150.838 48.458 150.986 48.249 151.198 48.158C151.2 48.158 151.198 48.155 151.2 48.153L158.783 45.004C158.855 44.972 158.933 44.9549 159.011 44.9538C159.09 44.9526 159.168 44.9673 159.241 44.9971C159.314 45.0269 159.381 45.0711 159.436 45.1271C159.491 45.1831 159.535 45.2497 159.564 45.323C160.732 49.387 163.518 51.779 167.422 51.779C170.202 51.779 172.655 50.47 172.655 47.526C172.655 45.153 170.283 43.68 165.624 41.472C160.8 39.18 157.203 35.99 157.203 30.509C157.203 24.404 160.585 20.119 166.353 18.561C167.929 18.134 169.681 17.911 171.594 17.911C173.127 17.911 174.659 18.142 176.113 18.561ZM202.531 18.567C202.858 18.567 203.12 18.83 203.12 19.157C203.12 19.171 203.117 19.185 203.115 19.201L195.311 59.361C195.273 59.5065 195.179 59.6313 195.05 59.709C194.957 59.7663 194.851 59.7964 194.742 59.796H185.724C185.635 59.7959 185.548 59.7759 185.468 59.7374C185.388 59.6989 185.318 59.6429 185.262 59.5735C185.207 59.5041 185.168 59.4232 185.149 59.3367C185.129 59.2502 185.129 59.1604 185.149 59.074V59.069L192.938 18.984C192.975 18.8636 193.049 18.7581 193.15 18.683C193.251 18.608 193.373 18.5673 193.499 18.567H202.531ZM216.86 34.435H235.663C235.335 29.282 232.963 26.582 227.813 26.582C222.662 26.582 218.576 30.182 216.86 34.435ZM234.347 18.561C241.751 20.538 245.637 26.821 245.637 34.435C245.637 38.036 244.91 40.988 244.614 42.039L244.613 42.04C244.575 42.1596 244.5 42.2642 244.399 42.3383C244.298 42.4124 244.175 42.4522 244.05 42.452L244.046 42.453H214.896V43.761C214.896 48.016 217.84 51.779 223.235 51.779C227.92 51.779 231.295 49.385 234.256 45.126C234.31 45.0576 234.379 45.0024 234.458 44.9643C234.537 44.9262 234.623 44.9063 234.71 44.906C234.79 44.906 234.872 44.93 234.944 44.963L242.063 48.633C242.193 48.7151 242.286 48.845 242.322 48.9948C242.358 49.1447 242.334 49.3027 242.255 49.435C238.375 55.038 234.187 58.459 228.446 59.799C226.588 60.232 224.565 60.449 222.337 60.449C220.497 60.449 218.746 60.228 217.108 59.799C209.718 57.858 204.677 51.649 204.677 42.208C204.677 31.296 211.702 21.172 223.196 18.561C225.141 18.1237 227.129 17.9057 229.122 17.911C231.022 17.911 232.763 18.137 234.347 18.561ZM278.634 27.775C277.665 27.271 276.481 26.992 275.074 26.992C270.005 26.992 262.974 32.146 260.521 45.153L257.748 59.345C257.717 59.4732 257.644 59.5873 257.54 59.6689C257.436 59.7505 257.308 59.7949 257.176 59.795H248.153C247.997 59.7947 247.847 59.7325 247.737 59.6221C247.626 59.5117 247.564 59.3621 247.564 59.206C247.564 59.173 247.568 59.1402 247.574 59.108L255.358 19.048L255.361 19.047C255.387 18.9124 255.459 18.7911 255.564 18.7037C255.669 18.6163 255.802 18.5683 255.939 18.568L255.955 18.567H264.954C265.043 18.5667 265.131 18.5867 265.211 18.6254C265.291 18.6641 265.361 18.7205 265.416 18.7904C265.471 18.8602 265.51 18.9416 265.529 19.0285C265.548 19.1154 265.547 19.2055 265.526 19.292L264.446 24.702C267.044 21.437 269.943 19.484 272.962 18.561C274.388 18.1263 275.871 17.9072 277.362 17.911C279.228 17.911 280.336 18.116 281.598 18.561C281.783 18.6263 281.968 18.6946 282.151 18.766C282.295 18.8274 282.408 18.9434 282.467 19.0885C282.525 19.2336 282.524 19.3959 282.463 19.54V19.545L279.485 27.494C279.453 27.5704 279.406 27.6393 279.346 27.6961C279.286 27.7529 279.214 27.7964 279.136 27.8237C279.058 27.851 278.975 27.8615 278.893 27.8544C278.81 27.8474 278.73 27.8231 278.658 27.783C278.65 27.779 278.642 27.7763 278.634 27.775ZM199.847 2.51895C203.185 2.51895 205.654 5.05995 205.654 8.32895C205.654 11.596 203.185 14.137 199.847 14.137C196.51 14.137 194.041 11.597 194.041 8.32795C194.041 5.05995 196.51 2.51895 199.847 2.51895ZM279.162 48.967C282.499 48.967 284.967 51.51 284.967 54.776C284.967 56.95 283.873 58.803 282.16 59.799C281.248 60.3224 280.213 60.5941 279.162 60.586C278.11 60.5946 277.074 60.3229 276.162 59.799C274.447 58.803 273.355 56.95 273.355 54.776C273.355 51.51 275.823 48.967 279.162 48.967Z" fill="black"/>
</svg>
